<svg width="111" height="54" viewBox="0 0 111 54" fill="none" xmlns="http://www.w3.org/2000/svg">
<path d="M3.87805 45.78L0 53.3253H13.8844L17.8103 45.78H3.87805ZM17.8103 45.6838H31.6947L35.5248 38.1385H21.9277L25.8058 30.5451H11.9214L7.99548 38.1385H21.6405L17.8103 45.6838ZM51.1328 7.76481H37.6793L33.8491 15.3582H46.9196L43.0415 22.9516H29.9232L33.8491 15.3582H19.9169L16.0388 22.9516H29.6838L25.8058 30.5451H39.4508L35.5248 38.1385H48.6432L44.047 47.2218L25.1355 53.2773L41.8925 53.2292L41.9404 53.085C42.0681 53.053 42.1478 52.9889 42.1798 52.8928L68.4643 0.988402C68.4643 0.956363 68.4643 0.924321 68.4643 0.892281L68.8473 0.171387H54.963L51.1328 7.76481ZM51.5637 7.76481H64.0596L60.1816 15.3582H47.7335L51.5637 7.76481ZM39.6902 30.5451L43.5682 22.9516H56.3514L52.4734 30.5451H39.6902ZM90.8708 36.8409L90.9187 36.7928L103.846 27.7095L69.0388 39.2919L61.8573 53.3253L67.6025 53.3734L90.6314 37.0331V36.9851L90.8708 36.8409ZM87.9982 36.5045L84.8862 35.9758L91.1581 33.2845L93.2647 33.6689L87.9982 36.5045ZM84.1201 38.6671L73.9223 44.2421L68.1292 43.1847L79.9548 38.0904L84.1201 38.6671Z" fill="#FCB61A"/>
<path d="M90.9187 39.4841L76.7949 49.4806L77.2258 53.3253C77.2578 53.3253 78.7739 53.3253 81.7742 53.3253C84.7745 53.3253 86.7055 53.3253 87.5673 53.3253C89.1951 53.2612 90.8549 53.2612 92.5465 53.3253C92.6423 53.3253 92.7221 53.3253 92.7859 53.3253L90.9187 39.4841ZM103.941 1.51706C102.856 1.00442 101.739 0.619944 100.59 0.363626L99.1536 0.171387H71.4327L44.0948 53.3253H59.6549L68.6079 35.6874L104.229 27.3731C105.473 26.3158 106.543 25.2425 107.436 24.1531C108.426 22.9356 109.192 21.6861 109.734 20.4045C110.277 19.187 110.644 17.8894 110.836 16.5117V12.0421C110.74 11.2091 110.58 10.36 110.357 9.49495C109.814 7.28421 108.841 5.44193 107.436 3.9681C106.479 3.0069 105.314 2.18989 103.941 1.51706ZM86.3704 11.7538H97.4779L88.2376 17.9054L89.9612 29.2475L81.6784 21.9905L71.72 28.9591L77.6089 17.2806L71.72 11.7538H80.3378L84.3116 4.30451L86.3704 11.7538Z" fill="#663399"/>
<path d="M97.4779 11.7534H86.3704L84.3117 4.3042L80.3379 11.7534H71.72L77.6089 17.2803L71.72 28.9588L81.6784 21.9901L89.9612 29.2471L88.2376 17.9051L97.4779 11.7534Z" fill="white"/>
<path d="M42.3234 53.2295H41.8925" stroke="white" stroke-width="0.1" stroke-linecap="round" stroke-linejoin="round"/>
</svg>
